<svg xmlns="http://www.w3.org/2000/svg" viewBox="0 0 24 24" fill="none">
  <defs>
    <linearGradient id="vkvdGradient" x1="4" y1="4" x2="20" y2="20" gradientUnits="userSpaceOnUse">
      <stop offset="0" stop-color="#6BCBFF"/>
      <stop offset="0.52" stop-color="#4D7CFE"/>
      <stop offset="1" stop-color="#2A5885"/>
    </linearGradient>
  </defs>
  <path
    d="M12 3C12.5523 3 13 3.44772 13 4V12.0858L15.7929 9.29289C16.1834 8.90237 16.8166 8.90237 17.2071 9.29289C17.5976 9.68342 17.5976 10.3166 17.2071 10.7071L12.7071 15.2071C12.3166 15.5976 11.6834 15.5976 11.2929 15.2071L6.79289 10.7071C6.40237 10.3166 6.40237 9.68342 6.79289 9.29289C7.18342 8.90237 7.81658 8.90237 8.20711 9.29289L11 12.0858V4C11 3.44772 11.4477 3 12 3Z"
    fill="url(#vkvdGradient)"
  />
  <path
    d="M6 17C5.44772 17 5 17.4477 5 18C5 19.6569 6.34315 21 8 21H16C17.6569 21 19 19.6569 19 18C19 17.4477 18.5523 17 18 17C17.4477 17 17 17.4477 17 18C17 18.5523 16.5523 19 16 19H8C7.44772 19 7 18.5523 7 18C7 17.4477 6.55228 17 6 17Z"
    fill="url(#vkvdGradient)"
  />
</svg>
